<svg width="45" height="45" viewBox="0 0 45 45" fill="none" xmlns="http://www.w3.org/2000/svg">
<path d="M18.75 22.5C22.8921 22.5 26.25 19.1421 26.25 15C26.25 10.8579 22.8921 7.5 18.75 7.5C14.6079 7.5 11.25 10.8579 11.25 15C11.25 19.1421 14.6079 22.5 18.75 22.5Z" fill="#FFF3E9"/>
<path d="M20.0063 24.4125C19.5938 24.3938 19.1813 24.375 18.75 24.375C14.2125 24.375 9.975 25.6312 6.35625 27.7875C4.70625 28.7625 3.75 30.6 3.75 32.5313V37.5H21.1125C19.7882 35.6108 18.9881 33.4044 18.7938 31.1055C18.5995 28.8066 19.0178 26.4972 20.0063 24.4125ZM38.9063 30C38.9063 29.5875 38.85 29.2125 38.7938 28.8187L40.9313 26.925L39.0563 23.6813L36.3375 24.6C35.7375 24.0937 35.0625 23.7 34.3125 23.4187L33.75 20.625H30L29.4375 23.4187C28.6875 23.7 28.0125 24.0937 27.4125 24.6L24.6938 23.6813L22.8188 26.925L24.9563 28.8187C24.9 29.2125 24.8438 29.5875 24.8438 30C24.8438 30.4125 24.9 30.7875 24.9563 31.1812L22.8188 33.075L24.6938 36.3188L27.4125 35.4C28.0125 35.9062 28.6875 36.3 29.4375 36.5813L30 39.375H33.75L34.3125 36.5813C35.0625 36.3 35.7375 35.9062 36.3375 35.4L39.0563 36.3188L40.9313 33.075L38.7938 31.1812C38.85 30.7875 38.9063 30.4125 38.9063 30ZM31.875 33.75C29.8125 33.75 28.125 32.0625 28.125 30C28.125 27.9375 29.8125 26.25 31.875 26.25C33.9375 26.25 35.625 27.9375 35.625 30C35.625 32.0625 33.9375 33.75 31.875 33.75Z" fill="#FFF3E9"/>
</svg>
