<svg width="43" height="40" viewBox="0 0 43 40" fill="none" xmlns="http://www.w3.org/2000/svg">
<path d="M14.2403 35.2797C13.3063 36.1304 12.0642 36.6052 10.7723 36.6052C9.48047 36.6052 8.23835 36.1304 7.30435 35.2797L5.73489 33.7854C4.81549 32.9089 4.29899 31.7201 4.29899 30.4806C4.29899 29.2411 4.81549 28.0524 5.73489 27.1759L15.9399 17.4485C16.8601 16.5725 18.1074 16.0804 19.4079 16.0804C20.7084 16.0804 21.9557 16.5725 22.8759 17.4485L24.4471 18.9445C24.7779 19.2599 25.2267 19.437 25.6946 19.437C26.1625 19.437 26.6112 19.2599 26.942 18.9445C27.2729 18.6291 27.4588 18.2014 27.4588 17.7554C27.4588 17.3094 27.2729 16.8817 26.942 16.5663L25.3708 15.0703C23.7903 13.5658 21.6478 12.7207 19.4141 12.7207C17.1803 12.7207 15.0379 13.5658 13.4573 15.0703L3.25224 24.7977C2.47008 25.5432 1.84964 26.4283 1.42633 27.4023C1.00303 28.3764 0.785156 29.4204 0.785156 30.4748C0.785156 31.5291 1.00303 32.5731 1.42633 33.5472C1.84964 34.5213 2.47008 35.4063 3.25224 36.1518L4.82171 37.6462C5.60363 38.3924 6.53219 38.9843 7.5543 39.3882C8.57641 39.7921 9.67201 40 10.7785 40C11.8849 40 12.9805 39.7921 14.0026 39.3882C15.0247 38.9843 15.9533 38.3924 16.7352 37.6462L21.5492 33.0592C21.7127 32.9035 21.8424 32.7186 21.9309 32.5151C22.0194 32.3116 22.065 32.0935 22.0651 31.8732C22.0652 31.653 22.0197 31.4348 21.9314 31.2313C21.843 31.0277 21.7134 30.8427 21.5501 30.6869C21.3867 30.5311 21.1928 30.4075 20.9793 30.3231C20.7658 30.2387 20.537 30.1953 20.3059 30.1952C20.0748 30.1951 19.8459 30.2384 19.6323 30.3226C19.4188 30.4069 19.2248 30.5304 19.0613 30.6861L14.2403 35.2797Z" fill="#FFF3E9"/>
<path d="M40.2895 3.83861L38.7201 2.34261C37.1375 0.84223 34.9963 0 32.7642 0C30.5321 0 28.3908 0.84223 26.8083 2.34261L21.697 7.20628C21.3765 7.52259 21.1991 7.94624 21.2031 8.38598C21.2072 8.82572 21.3922 9.24636 21.7184 9.55731C22.0447 9.86827 22.486 10.0446 22.9473 10.0485C23.4086 10.0523 23.8531 9.88325 24.1849 9.57774L29.2874 4.71407C30.2077 3.83894 31.4546 3.34747 32.7545 3.34747C34.0545 3.34747 35.3013 3.83894 36.2216 4.71407L37.7928 6.21175C38.2485 6.64569 38.6101 7.16099 38.8567 7.72819C39.1034 8.29539 39.2303 8.90337 39.2303 9.51737C39.2303 10.1314 39.1034 10.7393 38.8567 11.3065C38.6101 11.8737 38.2485 12.389 37.7928 12.823L27.5878 22.5503C27.1335 22.986 26.5931 23.3314 25.9978 23.5666C25.4025 23.8018 24.7642 23.9221 24.1198 23.9205C23.4761 23.9222 22.8384 23.802 22.2437 23.5671C21.6491 23.3322 21.1092 22.9872 20.6554 22.552C20.4942 22.388 20.3001 22.2565 20.0846 22.1654C19.8691 22.0742 19.6366 22.0253 19.4009 22.0215C19.1652 22.0177 18.931 22.0591 18.7124 22.1432C18.4938 22.2273 18.2951 22.3525 18.1283 22.5112C17.9614 22.6699 17.8297 22.859 17.7409 23.0672C17.6522 23.2754 17.6083 23.4985 17.6118 23.7232C17.6153 23.9479 17.6661 24.1697 17.7613 24.3753C17.8564 24.5809 17.9939 24.7662 18.1657 24.9201C18.9458 25.6675 19.8738 26.2599 20.8959 26.6629C21.9179 27.066 23.0137 27.2717 24.1198 27.2681C25.2262 27.2718 26.3223 27.0662 27.3446 26.6631C28.367 26.2601 29.2953 25.6676 30.0757 24.9201L40.2807 15.1928C41.0634 14.4473 41.6842 13.5622 42.1078 12.588C42.5314 11.6137 42.7494 10.5695 42.7494 9.51485C42.7494 8.46025 42.5314 7.41599 42.1078 6.44174C41.6842 5.4675 41.0634 4.58236 40.2807 3.83693L40.2895 3.83861Z" fill="#FFF3E9"/>
</svg>
