<svg width="45" height="45" viewBox="0 0 45 45" fill="none" xmlns="http://www.w3.org/2000/svg">
<path d="M22.5 3.75C12.15 3.75 3.75 12.15 3.75 22.5C3.75 32.85 12.15 41.25 22.5 41.25C32.85 41.25 41.25 32.85 41.25 22.5C41.25 12.15 32.85 3.75 22.5 3.75ZM13.2563 34.275C14.0625 32.5875 18.975 30.9375 22.5 30.9375C26.025 30.9375 30.9563 32.5875 31.7438 34.275C29.1938 36.3 25.9875 37.5 22.5 37.5C19.0125 37.5 15.8063 36.3 13.2563 34.275ZM34.425 31.5562C31.7438 28.2938 25.2375 27.1875 22.5 27.1875C19.7625 27.1875 13.2562 28.2938 10.575 31.5562C8.5831 28.9572 7.50245 25.7746 7.5 22.5C7.5 14.2313 14.2313 7.5 22.5 7.5C30.7687 7.5 37.5 14.2313 37.5 22.5C37.5 25.9125 36.3375 29.0437 34.425 31.5562ZM22.5 11.25C18.8625 11.25 15.9375 14.175 15.9375 17.8125C15.9375 21.45 18.8625 24.375 22.5 24.375C26.1375 24.375 29.0625 21.45 29.0625 17.8125C29.0625 14.175 26.1375 11.25 22.5 11.25ZM22.5 20.625C20.9438 20.625 19.6875 19.3687 19.6875 17.8125C19.6875 16.2563 20.9438 15 22.5 15C24.0562 15 25.3125 16.2563 25.3125 17.8125C25.3125 19.3687 24.0562 20.625 22.5 20.625Z" fill="#FFF3E9"/>
</svg>
