<svg width="45" height="45" viewBox="0 0 45 45" fill="none" xmlns="http://www.w3.org/2000/svg">
<path d="M22.5 11.25C24.5625 11.25 26.25 12.9375 26.25 15C26.25 17.0625 24.5625 18.75 22.5 18.75C20.4375 18.75 18.75 17.0625 18.75 15C18.75 12.9375 20.4375 11.25 22.5 11.25ZM22.5 30C27.5625 30 33.375 32.4188 33.75 33.75H11.25C11.6813 32.4 17.4563 30 22.5 30ZM22.5 7.5C18.3562 7.5 15 10.8562 15 15C15 19.1438 18.3562 22.5 22.5 22.5C26.6437 22.5 30 19.1438 30 15C30 10.8562 26.6437 7.5 22.5 7.5ZM22.5 26.25C17.4937 26.25 7.5 28.7625 7.5 33.75V37.5H37.5V33.75C37.5 28.7625 27.5063 26.25 22.5 26.25Z" fill="#FFF3E9"/>
</svg>
