<svg width="45" height="45" viewBox="0 0 45 45" fill="none" xmlns="http://www.w3.org/2000/svg">
<path d="M5.625 9.375V35.625C5.625 36.6196 6.02009 37.5734 6.72335 38.2766C7.42661 38.9799 8.38044 39.375 9.375 39.375H35.625C37.6875 39.375 39.375 37.6875 39.375 35.625V9.375C39.375 7.3125 37.6875 5.625 35.625 5.625H9.375C8.38044 5.625 7.42661 6.02009 6.72335 6.72335C6.02009 7.42661 5.625 8.38044 5.625 9.375ZM28.125 16.875C28.125 19.9875 25.6125 22.5 22.5 22.5C19.3875 22.5 16.875 19.9875 16.875 16.875C16.875 13.7625 19.3875 11.25 22.5 11.25C25.6125 11.25 28.125 13.7625 28.125 16.875ZM11.25 31.875C11.25 28.125 18.75 26.0625 22.5 26.0625C26.25 26.0625 33.75 28.125 33.75 31.875V33.75H11.25V31.875Z" fill="#FFF3E9"/>
</svg>
